<?xml version="1.0" encoding="utf-8"?>
<!-- Generator: Adobe Illustrator 24.0.2, SVG Export Plug-In . SVG Version: 6.00 Build 0)  -->
<svg version="1.1" id="Layer_1" xmlns="http://www.w3.org/2000/svg" xmlns:xlink="http://www.w3.org/1999/xlink" x="0px" y="0px"
	 viewBox="0 0 300 300" style="enable-background:new 0 0 300 300;" xml:space="preserve">
<style type="text/css">
	.st0{fill:#00798B;}
	.st1{fill:#3A3A3A;}
	.st2{fill:#E7E460;}
	.st3{fill:#E73860;}
	.st4{fill:#FFE39C;}
	.st5{fill:#EEA836;}
	.st6{fill:#E86634;}
	.st7{fill:#1D305E;}
	.st8{fill:#5E8730;}
	.st9{fill:none;stroke:#4C261A;stroke-width:4;stroke-miterlimit:10;}
</style>
<g>
	<rect x="76.26" y="76.6" class="st0" width="74" height="74"/>
	<rect x="150.3" y="76.6" class="st1" width="74" height="74"/>
	<rect x="150.3" y="150.17" class="st2" width="74" height="74"/>
	<rect x="76.26" y="150.17" class="st3" width="74" height="74"/>
	<polygon class="st4" points="154.96,206.93 145.22,206.93 141.22,96.47 158.96,96.47 	"/>
	<polygon class="st5" points="143.06,96.6 150.26,204.91 157.46,96.6 186.34,97.95 178.56,133.56 153.39,206.93 147.01,206.93 
		114.86,152.52 114.18,97.95 	"/>
	<path class="st6" d="M114.78,97.49c0,0,29,73,36,112l-38.7-26.29l-5.63-62.88L114.78,97.49z"/>
	<path class="st7" d="M115.91,96.6c0,0-5.62,69.32,34.38,110.32c0,0-49.04-29.32-58.04-40.32C92.26,166.6,99.91,130.6,115.91,96.6z"
		/>
	<path class="st6" d="M186.24,96.47c0,0-29.39,73.09-36.39,112.09l38.7-26.29l5.63-62.88L186.24,96.47z"/>
	<path class="st8" d="M184.85,96.47c0,0,4.41,70.09-35.59,111.09c0,0,49.59-30.09,58.59-41.09
		C207.85,166.47,200.85,130.47,184.85,96.47z"/>
	<polygon class="st9" points="150.26,96.27 186.34,97.95 199.08,131.74 208.64,166.57 180.43,189.13 150.26,208.98 120.09,189.13 
		91.88,166.57 101.44,131.74 114.18,97.95 	"/>
</g>
</svg>
